# xmcd
#
# Track frame offsets:
#	150
#	13362
#	31735
#	45299
#	58992
#	67836
#	76386
#	82914
#	97545
#	117005
#	128015
#	139217
#	150813
#	165722
#	183835
#	198562
#	213087
#	229138
#
# Disc length: 3301 seconds
#
# Revision: 0
# Processed by: cddbd v1.5.2PL0 Copyright (c) Steve Scherf et al.
# Submitted via: EasyCDDAExtractor 16.0.6.1
#
DISCID=d40ce312
DTITLE=Γλυκερία - Εκατόν σαράντα μεγ. επιτυχίες-Γλυκερία 7
DYEAR=2010
DGENRE=Ποικίλη
TTITLE0=Πήγα σε μάγισσες [Χρ. Νικολόπουλος-Λ. Χαψιάδης]
TTITLE1=Μιά μελαχροινή [Στέλιος Περπινιάδης-Παν. Κοκοντίνης]
TTITLE2=Από ξένο τόπο [παραδ. Σμύρνης, διασκ. Στέλιος Φωτίδας]
TTITLE3=Καροτσέρη τράβα [παραδ., διασκ. Στέλιος Φωτίδας]
TTITLE4=Στο Τούνεζι, στην Μπαρμπαριά [Βασ. Τσιτσάνης]
TTITLE5=Καΐκι μου Άη Νικόλα [Βασ. Τσιτσάνης]
TTITLE6=Η τράτα μας η κουρελού [παραδ., διασκ. Σταμ. Χατζηδάκης]
TTITLE7=Και ζαλίστηκα [Αντ. Στεφανίδης-Σαρ. Αλιβιζάτος]
TTITLE8=Με πανσέληνο [Θοδ. Παπαδόπουλος-Γ. Κλεφτογιώργος]
TTITLE9=Νά 'χα όσα έχει η τράπεζα [Γιάννης Καραλής]
TTITLE10=Φτώχεια μαζί με την τιμή [Παν. Τούντας]
TTITLE11=Στην οδό ερωτευμένων [Μάριος Τόκας-Σαρ. Αλιβιζάτος]
TTITLE12=Σαν ξημερώνει [Στέλιος Φωτιάδης]
TTITLE13=Σιωπές [Γιώργος Σταυριανός]
TTITLE14=Σαν επιβάτης [Στ. Φωτιάδης-Ιφιγ. Γιαννοπούλου]
TTITLE15=Μ' εσένανε που διάλεξα [Γιάννης Τσελέπης-Λευτ. Χαψιάδης]
TTITLE16=Κλεφτά, κλεφτά [Στ.Φωτιάδης-Σαρ. Αλιβιζάτος]
TTITLE17=Μς γέλασαν μιά χαραυγή [παραδ., διασκ. Στέλιος Φωτίδας]
EXTD=
EXTT0=
EXTT1=
EXTT2=
EXTT3=
EXTT4=
EXTT5=
EXTT6=
EXTT7=
EXTT8=
EXTT9=
EXTT10=
EXTT11=
EXTT12=
EXTT13=
EXTT14=
EXTT15=
EXTT16=
EXTT17=
PLAYORDER=
